<svg width="12" height="12" viewBox="0 0 12 12" fill="none" xmlns="http://www.w3.org/2000/svg">
<path fill-rule="evenodd" clip-rule="evenodd" d="M5.26461 1.3401C5.72123 1.08325 6.27877 1.08325 6.73539 1.3401L9.73539 3.0276C9.82028 3.07535 9.89935 3.13066 9.97196 3.19242L6.00028 5.42652L2.0282 3.19228C2.10076 3.13058 2.17978 3.07531 2.26461 3.0276L5.26461 1.3401ZM1.52592 4.0571C1.50884 4.14777 1.5 4.24073 1.5 4.33496V7.66527C1.5 8.20718 1.79229 8.70695 2.26461 8.97263L5.26461 10.6601C5.34068 10.7029 5.41955 10.7386 5.50029 10.7671V6.29262L1.52592 4.0571ZM6.50029 10.7669C6.58083 10.7384 6.6595 10.7028 6.73539 10.6601L9.73539 8.97263C10.2077 8.70695 10.5 8.20718 10.5 7.66527V4.33496C10.5 4.2408 10.4912 4.14791 10.4741 4.0573L6.50029 6.29262V10.7669Z" fill="#FCFCFC"/>
</svg>
