<svg width="32" height="32" viewBox="0 0 32 32" fill="none" xmlns="http://www.w3.org/2000/svg">
<g clip-path="url(#clip0_298_6664)">
<path d="M15.457 6.1709L15.2695 6.06055L12.0488 4.17188L8.49414 6.24414L11.6172 8.30957L13.0928 7.31641L13.1572 7.27246L13.2256 7.31152L15.584 8.6875L15.7568 8.78906L15.5898 8.89941L11.7217 11.4746L11.6533 11.5195L11.584 11.4756L7.17383 8.63477L7.1709 10.7432V10.8096L7.11621 10.8467L3.58301 13.2393V18.5518L5.875 20.1035L8.11914 18.5859V17.3359L4.88672 15.123L4.73242 15.0176L4.88867 14.915L6.99219 13.5371L7.06055 13.4932L7.12891 13.5371L9.3623 14.9902L12.3076 13.0205L12.502 12.8906V16.0352L12.4473 16.0723L10.8271 17.1826V18.8828L12.1279 19.9023L14.7461 18.4287L14.7539 12.1855V12.1162L14.8135 12.0791L18.6504 9.72461V6.16602L18.8457 6.2998L21.3037 7.98145L21.3584 8.01855V9.88379L22.7432 10.8955L24.8262 9.48438L24.8232 7.21582L20.1201 4.12012L20.0645 4.08398V0.768555L20.2578 0.895508L27.4727 5.61133L27.5293 5.64844V5.71582L27.5342 9.55859L31.0703 11.9541L31.125 11.9912V20.2188L31.0703 20.2568L27.5342 22.6504L27.5293 26.4961V26.5684L27.4678 26.6045L20.0107 30.9502L19.9473 30.9863L19.8848 30.9492L16.6045 29.0264L16.543 28.9902V25.8311L16.7305 25.9414L19.9512 27.8291L23.5049 25.7568L20.3809 23.6904L18.9062 24.666L18.8418 24.709L18.7744 24.6699L16.416 23.2959L16.2422 23.1943L16.4102 23.083L20.2793 20.5254L20.3467 20.4805L20.416 20.5244L24.8252 23.3662L24.8291 21.2588V21.1924L24.8838 21.1553L28.417 18.7617V13.4492L26.124 11.8975L23.8809 13.415V14.6631L27.1133 16.8789L27.2676 16.9844L27.1113 17.0869L25.0078 18.4648L24.9395 18.5088L24.8711 18.4648L22.6367 17.0107L19.6924 18.9814L19.498 19.1113V15.9668L19.5527 15.9297L21.1729 14.8184V13.1172L19.8721 12.0996L17.3447 13.5723L17.3018 19.8164L17.3008 19.8867L17.2412 19.9229L13.3496 22.2773V25.8359L13.1543 25.7021L10.6963 24.0205L10.6416 23.9834V22.1172L9.25586 21.1055L7.17285 22.5166L7.17578 24.7852L11.8799 27.8809L11.9355 27.918V31.2314L11.7422 31.1045L4.52734 26.3906L4.4707 26.3535V26.2861L4.46484 22.4404L0.929688 20.0459L0.875 20.0088V11.7822L0.929688 11.7451L4.46484 9.34961L4.4707 5.50586V5.43359L4.53223 5.39746L11.9893 1.0498L12.0527 1.01367L12.1152 1.05078L15.3955 2.97363L15.457 3.00977V6.1709Z" fill="#121212" stroke="#121212" stroke-width="0.25"/>
</g>
<defs>
<clipPath id="clip0_298_6664">
<rect width="32" height="32" fill="white"/>
</clipPath>
</defs>
</svg>
