<svg width="145" height="32" viewBox="0 0 145 32" fill="none" xmlns="http://www.w3.org/2000/svg">
<g clip-path="url(#clip0_680_19454)">
<path d="M15.457 6.1709L15.2695 6.06055L12.0488 4.17188L8.49414 6.24414L11.6172 8.30957L13.0928 7.31641L13.1572 7.27246L13.2256 7.31152L15.584 8.6875L15.7568 8.78906L15.5898 8.89941L11.7217 11.4746L11.6533 11.5195L11.584 11.4756L7.17383 8.63477L7.1709 10.7432V10.8096L7.11621 10.8467L3.58301 13.2393V18.5518L5.875 20.1035L8.11914 18.5859V17.3359L4.88672 15.123L4.73242 15.0176L4.88867 14.915L6.99219 13.5371L7.06055 13.4932L7.12891 13.5371L9.3623 14.9902L12.3076 13.0205L12.502 12.8906V16.0352L12.4473 16.0723L10.8271 17.1826V18.8828L12.1279 19.9023L14.7461 18.4287L14.7539 12.1855V12.1162L14.8135 12.0791L18.6504 9.72461V6.16602L18.8457 6.2998L21.3037 7.98145L21.3584 8.01855V9.88379L22.7432 10.8955L24.8262 9.48438L24.8232 7.21582L20.1201 4.12012L20.0645 4.08398V0.768555L20.2578 0.895508L27.4727 5.61133L27.5293 5.64844V5.71582L27.5342 9.55859L31.0703 11.9541L31.125 11.9912V20.2188L31.0703 20.2568L27.5342 22.6504L27.5293 26.4961V26.5684L27.4678 26.6045L20.0107 30.9502L19.9473 30.9863L19.8848 30.9492L16.6045 29.0264L16.543 28.9902V25.8311L16.7305 25.9414L19.9512 27.8291L23.5049 25.7568L20.3809 23.6904L18.9062 24.666L18.8418 24.709L18.7744 24.6699L16.416 23.2959L16.2422 23.1943L16.4102 23.083L20.2793 20.5254L20.3467 20.4805L20.416 20.5244L24.8252 23.3662L24.8291 21.2588V21.1924L24.8838 21.1553L28.417 18.7617V13.4492L26.124 11.8975L23.8809 13.415V14.6631L27.1133 16.8789L27.2676 16.9844L27.1113 17.0869L25.0078 18.4648L24.9395 18.5088L24.8711 18.4648L22.6367 17.0107L19.6924 18.9814L19.498 19.1113V15.9668L19.5527 15.9297L21.1729 14.8184V13.1172L19.8721 12.0996L17.3447 13.5723L17.3018 19.8164L17.3008 19.8867L17.2412 19.9229L13.3496 22.2773V25.8359L13.1543 25.7021L10.6963 24.0205L10.6416 23.9834V22.1172L9.25586 21.1055L7.17285 22.5166L7.17578 24.7852L11.8799 27.8809L11.9355 27.918V31.2314L11.7422 31.1045L4.52734 26.3906L4.4707 26.3535V26.2861L4.46484 22.4404L0.929688 20.0459L0.875 20.0088V11.7822L0.929688 11.7451L4.46484 9.34961L4.4707 5.50586V5.43359L4.53223 5.39746L11.9893 1.0498L12.0527 1.01367L12.1152 1.05078L15.3955 2.97363L15.457 3.00977V6.1709Z" fill="#121212" stroke="#121212" stroke-width="0.25"/>
</g>
<path d="M139.101 23.4001C138.168 23.4001 137.341 23.2401 136.621 22.9201C135.901 22.6001 135.295 22.1667 134.801 21.6201C134.308 21.0734 133.928 20.4601 133.661 19.7801C133.408 19.1001 133.281 18.4001 133.281 17.6801V17.2801C133.281 16.5334 133.408 15.8201 133.661 15.1401C133.928 14.4467 134.301 13.8334 134.781 13.3001C135.275 12.7667 135.875 12.3467 136.581 12.0401C137.288 11.7201 138.088 11.5601 138.981 11.5601C140.168 11.5601 141.175 11.8267 142.001 12.3601C142.828 12.8934 143.461 13.6001 143.901 14.4801C144.341 15.3467 144.561 16.2934 144.561 17.3201V18.4801H134.801V16.5201H142.461L141.201 17.4001C141.201 16.7734 141.115 16.2467 140.941 15.8201C140.781 15.3801 140.535 15.0467 140.201 14.8201C139.881 14.5934 139.475 14.4801 138.981 14.4801C138.501 14.4801 138.081 14.5934 137.721 14.8201C137.375 15.0334 137.108 15.3667 136.921 15.8201C136.735 16.2601 136.641 16.8201 136.641 17.5001C136.641 18.1134 136.728 18.6467 136.901 19.1001C137.075 19.5401 137.341 19.8801 137.701 20.1201C138.061 20.3601 138.528 20.4801 139.101 20.4801C139.608 20.4801 140.021 20.3934 140.341 20.2201C140.675 20.0467 140.908 19.8134 141.041 19.5201H144.361C144.201 20.2667 143.881 20.9334 143.401 21.5201C142.935 22.1067 142.335 22.5667 141.601 22.9001C140.881 23.2334 140.048 23.4001 139.101 23.4001Z" fill="#121212"/>
<path d="M125.087 23L121.927 11.96H125.647L128.587 23H125.087ZM126.247 23V19.96H129.787V23H126.247ZM127.527 23L130.027 11.96H133.507L130.787 23H127.527Z" fill="#121212"/>
<path d="M118.93 22.9998V19.7598H118.33V16.2998C118.33 15.7931 118.21 15.4198 117.97 15.1798C117.743 14.9264 117.363 14.7998 116.83 14.7998C116.576 14.7998 116.203 14.8064 115.71 14.8198C115.216 14.8331 114.696 14.8531 114.15 14.8798C113.603 14.9064 113.103 14.9331 112.65 14.9598V11.9198C112.97 11.8931 113.35 11.8664 113.79 11.8398C114.23 11.8131 114.683 11.7931 115.15 11.7798C115.63 11.7664 116.07 11.7598 116.47 11.7598C117.603 11.7598 118.563 11.9264 119.35 12.2598C120.15 12.5931 120.756 13.0931 121.17 13.7598C121.596 14.4264 121.81 15.2731 121.81 16.2998V22.9998H118.93ZM115.43 23.2798C114.656 23.2798 113.97 23.1398 113.37 22.8598C112.77 22.5798 112.296 22.1798 111.95 21.6598C111.616 21.1264 111.45 20.4931 111.45 19.7598C111.45 18.9331 111.67 18.2664 112.11 17.7598C112.55 17.2398 113.156 16.8598 113.93 16.6198C114.703 16.3798 115.59 16.2598 116.59 16.2598H118.73V18.1398H116.59C116.096 18.1398 115.716 18.2664 115.45 18.5198C115.183 18.7598 115.05 19.0864 115.05 19.4998C115.05 19.8998 115.183 20.2264 115.45 20.4798C115.716 20.7198 116.096 20.8398 116.59 20.8398C116.91 20.8398 117.19 20.7864 117.43 20.6798C117.683 20.5598 117.89 20.3598 118.05 20.0798C118.21 19.7998 118.303 19.4131 118.33 18.9198L119.17 19.7198C119.103 20.4798 118.916 21.1264 118.61 21.6598C118.316 22.1798 117.903 22.5798 117.37 22.8598C116.85 23.1398 116.203 23.2798 115.43 23.2798Z" fill="#121212"/>
<path d="M98.8392 23L100.799 12.32H104.599L106.839 23H104.079L101.759 12.4H103.439L101.319 23H98.8392ZM98.1592 23L98.1392 19.96H100.339L100.359 23H98.1592ZM96.3792 23L93.4792 11.96H97.0392L99.7192 23H96.3792ZM105.059 23L105.079 19.96H107.279L107.259 23H105.059ZM105.939 23L108.359 11.96H111.679L109.039 23H105.939Z" fill="#121212"/>
<path d="M82.4723 23.0001V11.9601H85.3523V16.7001H85.1923C85.1923 15.5534 85.339 14.6068 85.6323 13.8601C85.9256 13.1001 86.359 12.5334 86.9323 12.1601C87.519 11.7868 88.2256 11.6001 89.0523 11.6001H89.2123C90.4656 11.6001 91.4323 12.0201 92.1123 12.8601C92.8056 13.6868 93.1523 14.9601 93.1523 16.6801V23.0001H89.5123V16.5801C89.5123 16.0734 89.359 15.6601 89.0523 15.3401C88.759 15.0068 88.3523 14.8401 87.8323 14.8401C87.3123 14.8401 86.8923 15.0068 86.5723 15.3401C86.2656 15.6601 86.1123 16.0868 86.1123 16.6201V23.0001H82.4723Z" fill="#121212"/>
<path d="M77.1563 22.9999V11.9599H80.7963V22.9999H77.1563ZM75.7563 14.5999V11.9599H80.7963V14.5999H75.7563ZM78.6563 11.0799C77.9897 11.0799 77.4963 10.9133 77.1763 10.5799C76.8697 10.2333 76.7163 9.79328 76.7163 9.25994C76.7163 8.72661 76.8697 8.29327 77.1763 7.95994C77.4963 7.61327 77.983 7.43994 78.6363 7.43994C79.303 7.43994 79.7897 7.61327 80.0963 7.95994C80.403 8.29327 80.5563 8.72661 80.5563 9.25994C80.5563 9.79328 80.403 10.2333 80.0963 10.5799C79.7897 10.9133 79.3097 11.0799 78.6563 11.0799Z" fill="#121212"/>
<path d="M72.3242 22.9998V19.7598H71.7242V16.2998C71.7242 15.7931 71.6042 15.4198 71.3642 15.1798C71.1376 14.9264 70.7576 14.7998 70.2242 14.7998C69.9709 14.7998 69.5976 14.8064 69.1042 14.8198C68.6109 14.8331 68.0909 14.8531 67.5442 14.8798C66.9976 14.9064 66.4976 14.9331 66.0442 14.9598V11.9198C66.3642 11.8931 66.7442 11.8664 67.1842 11.8398C67.6242 11.8131 68.0776 11.7931 68.5442 11.7798C69.0242 11.7664 69.4642 11.7598 69.8642 11.7598C70.9976 11.7598 71.9576 11.9264 72.7442 12.2598C73.5442 12.5931 74.1509 13.0931 74.5642 13.7598C74.9909 14.4264 75.2042 15.2731 75.2042 16.2998V22.9998H72.3242ZM68.8242 23.2798C68.0509 23.2798 67.3642 23.1398 66.7642 22.8598C66.1642 22.5798 65.6909 22.1798 65.3442 21.6598C65.0109 21.1264 64.8442 20.4931 64.8442 19.7598C64.8442 18.9331 65.0642 18.2664 65.5042 17.7598C65.9442 17.2398 66.5509 16.8598 67.3242 16.6198C68.0976 16.3798 68.9842 16.2598 69.9842 16.2598H72.1242V18.1398H69.9842C69.4909 18.1398 69.1109 18.2664 68.8442 18.5198C68.5776 18.7598 68.4442 19.0864 68.4442 19.4998C68.4442 19.8998 68.5776 20.2264 68.8442 20.4798C69.1109 20.7198 69.4909 20.8398 69.9842 20.8398C70.3042 20.8398 70.5842 20.7864 70.8242 20.6798C71.0776 20.5598 71.2842 20.3598 71.4442 20.0798C71.6042 19.7998 71.6976 19.4131 71.7242 18.9198L72.5642 19.7198C72.4976 20.4798 72.3109 21.1264 72.0042 21.6598C71.7109 22.1798 71.2976 22.5798 70.7642 22.8598C70.2442 23.1398 69.5976 23.2798 68.8242 23.2798Z" fill="#121212"/>
<path d="M58.2457 22.9998V11.9598H61.1257V16.7598H61.0857C61.0857 15.2131 61.4057 13.9998 62.0457 13.1198C62.6991 12.2398 63.6324 11.7998 64.8457 11.7998H65.2857V14.9198H64.4457C63.6324 14.9198 62.9991 15.1398 62.5457 15.5798C62.1057 16.0198 61.8857 16.6531 61.8857 17.4798V22.9998H58.2457Z" fill="#121212"/>
<path d="M48.68 23.1198V20.2798H51.9C52.4466 20.2798 52.8533 20.1398 53.12 19.8598C53.3866 19.5798 53.52 19.1731 53.52 18.6398C53.52 18.1065 53.3866 17.7065 53.12 17.4398C52.8533 17.1598 52.4466 17.0198 51.9 17.0198H48.68V14.8198H51.78C52.8066 14.8198 53.7266 14.9465 54.54 15.1998C55.3533 15.4398 55.9933 15.8398 56.46 16.3998C56.9266 16.9598 57.16 17.7065 57.16 18.6398V18.9198C57.16 19.7998 56.9533 20.5531 56.54 21.1798C56.1266 21.8065 55.52 22.2865 54.72 22.6198C53.92 22.9531 52.94 23.1198 51.78 23.1198H48.68ZM45.48 23.1198V8.27979H49.08V23.1198H45.48ZM48.68 16.4598V14.2598H51.36C51.9066 14.2598 52.3 14.1265 52.54 13.8598C52.7933 13.5798 52.92 13.1931 52.92 12.6998C52.92 12.1931 52.7933 11.8065 52.54 11.5398C52.3 11.2598 51.9066 11.1198 51.36 11.1198H48.68V8.27979H51.2C52.9066 8.27979 54.2266 8.63979 55.16 9.35979C56.0933 10.0665 56.56 11.0798 56.56 12.3998V12.6998C56.56 13.6198 56.32 14.3598 55.84 14.9198C55.3733 15.4665 54.7333 15.8598 53.92 16.0998C53.12 16.3398 52.2133 16.4598 51.2 16.4598H48.68Z" fill="#121212"/>
<defs>
<clipPath id="clip0_680_19454">
<rect width="32" height="32" fill="white"/>
</clipPath>
</defs>
</svg>
